<?xml version="1.0" encoding="utf-8"?>
<!-- Generator: Adobe Illustrator 21.0.0, SVG Export Plug-In . SVG Version: 6.00 Build 0)  -->
<svg version="1.1" id="图层_1" xmlns="http://www.w3.org/2000/svg" xmlns:xlink="http://www.w3.org/1999/xlink" x="0px" y="0px"
	 viewBox="0 0 112 24" style="enable-background:new 0 0 112 24;" xml:space="preserve">
<g>
	<g>
		<path d="M111.6,35.2c-2.1,8-4.1,15.4-6,22.7c-0.5,2-0.7,3.8-3.8,2.9c-2.8-0.8-3-2-2.3-4.5c2-7,3.8-14.1,5.8-21.8
			C96.1,37.3,87.6,40,79,42.5c-4.4,1.3-9.3,4.8-13,3.2c-3.5-1.5-5.5-6.8-8.1-10.4c-5.7-7.9-11.2-15.9-16.9-23.8
			C39.4,9.4,39.4,8.1,41,6c7.3-9.5,14.4-19.2,21.6-28.7c1.4-1.8,1.7-3.3,1-5.4c-4.1-12.8-8.1-25.7-12-38.6c-0.7-2.3-1.8-3.4-4.2-3.9
			c-6.9-1.3-13.6-3-20.4-4.6c-0.8-0.2-2.4,0.2-2.2-1.3c0.2-1.7,1.6-0.6,2.4-0.5c9.3,2,18.5,4.2,27.8,6.2c2,0.4,2.4,1.7,2.9,3.4
			c3.8,12.3,7.7,24.5,11.4,36.8c0.8,2.5,1.9,3.9,4.5,4.7c5.7,1.7,11.4,3.8,17,5.8c1,0.4,3.1,0.2,2.5,1.8c-0.4,1.3-2,0.2-3-0.2
			c-6.6-2.2-13.3-4.4-19.8-6.7c-2.2-0.8-3.5-0.6-4.9,1.5C58.2-13.5,50.6-3.4,43,6.6c-1.3,1.7-1.3,2.8,0,4.5
			C50.3,21.3,57.6,31.6,64.8,42c1.4,2.1,2.7,2.3,4.9,1.6c11.9-3.8,23.8-7.5,35.7-11.1c2.1-0.6,2.9-1.6,2.9-3.9
			c0-7.6,0.3-15.2,0.5-22.8c0-1-0.7-2.8,0.8-2.8c1.8,0,1.1,1.9,1,3c-0.1,7.2-0.1,14.5-0.4,21.7c-0.1,2.9,0.7,4.8,3.1,6.5
			c10.1,7.3,20,14.9,30.1,22.3c1.8,1.3,2.9,2.9,3.5,5.1c1.9,7.3,3.9,14.5,5.8,21.7c0.2,0.8,1.2,2.1-0.4,2.4
			c-1.1,0.2-1.2-1.1-1.4-1.9c-2-7.2-3.9-14.5-5.8-21.7c-0.4-1.3-0.7-2.6-1.9-3.5C132.7,51,122.4,43.3,111.6,35.2z"/>
		<path d="M-48.3,65.4c1.4-1.1,2.8-0.7,4-0.7c10,0,20-0.1,30,0c2.4,0,3.5-0.6,4-3.1c1.7-7.9,3.7-15.8,5.6-23.7
			c0.2-0.8-0.2-2.5,1.3-2.1c1.6,0.3,0.5,1.7,0.4,2.5C-4.8,46.1-6.5,54-8.5,61.9c-0.6,2.5,0,3.2,2.4,3.8C1,67.4,8,69.4,15.1,71.3
			c0.9,0.2,2.5,0.1,2.2,1.4c-0.4,1.8-1.9,0.5-2.7,0.3c-7.1-1.8-14.3-3.7-21.3-5.7c-2.3-0.7-3.3-0.1-4.1,2.1
			c-4.2,10.8-8.5,21.6-12.9,32.3c-0.4,1-0.3,3.1-2,2.4c-1.3-0.5,0-2,0.3-3c4.1-10.6,8.3-21.1,12.6-31.6c1.1-2.8,0.5-3.3-2.3-3.3
			c-10.2,0.1-20.5,0.1-30.7,0C-46.6,66.4-47.4,66.5-48.3,65.4z"/>
		<path d="M-41.9-80.5c0-2,0-4,0-6c0.1-5.6-0.8-5.1,5.3-5.1c2,0,4-0.1,5.9,0.4c4,0.9,5.6,4.6,3.3,8c-1,1.4-1,1.9,0.3,3.2
			c3.5,3.4,1.9,8.6-2.7,9.9c-3.4,1-6.9,0.4-10.4,0.5c-1.6,0.1-1.7-1.1-1.7-2.3C-41.9-74.8-41.9-77.7-41.9-80.5z M-34.8-72.4
			c0.7,0,1.5,0,2.2,0c2.4,0,4.2-0.9,4.3-3.5c0.1-2.6-1.7-3.7-4-3.9c-1.6-0.1-3.2-0.1-4.8,0c-0.7,0-1.4,0.1-1.7,1
			C-40.3-75.2-38.6-72.4-34.8-72.4z M-34.3-89.1c-2.6,0-5-0.7-4.7,3.1c0.2,2.4,0.2,4.1,3.3,3.7c2.7-0.4,6.3,0.8,6.4-3.6
			C-29.2-89.6-32.4-88.9-34.3-89.1z"/>
		<path d="M135.8-14.5c3,1.8,4.5,4.2,3.2,7.6c-1.3,3.4-4,4.1-7.2,4.2c-8.9,0.2-8.9,0.2-8.9-8.6c0-3.6,0.1-7.2,0-10.9
			c-0.1-1.8,0.6-2.4,2.4-2.3c2,0.1,4,0.1,6,0c2.6-0.1,5.1,0.4,6.4,3C139.1-18.9,138.1-16.6,135.8-14.5z M129.9-5.4c1,0,2,0.1,3,0
			c2.2-0.2,3.5-1.5,3.5-3.6c0-2.1-1.2-3.5-3.4-3.6c-1.7-0.1-3.5-0.2-5.2-0.2c-0.7,0-1.4,0-1.8,0.9C124.4-8.6,126.3-5.3,129.9-5.4z
			 M129.5-15.5c1,0,1.9,0.1,2.7,0c2-0.2,3.3-1.4,3.3-3.4c0-1.8-1.2-3-3.1-3.2c-0.9-0.1-1.7-0.2-2.6-0.2c-2.1,0-4.2-0.6-4.1,2.9
			C125.9-16.5,126.1-14.6,129.5-15.5z"/>
		<path d="M103.1-18.7c0,4.4,0,8.9,0,13.3c0,1,0.4,2.5-1.4,2.5c-1.8-0.1-1.2-1.6-1.2-2.6c-0.1-5.5-0.1-11,0-16.5
			c0-0.9-0.5-2.1,0.9-2.5c1.3-0.4,2.3,0.1,3.1,1.3c2.7,4.2,5.5,8.3,8.3,12.4c0.5,0.7,0.7,1.6,2.1,1.9c0-4.4,0-8.7,0-13
			c0-1.1-0.5-2.8,1.5-2.7c1.8,0.1,1.2,1.6,1.2,2.6c0.1,5.5,0.1,11,0,16.5c0,0.9,0.6,2.1-0.8,2.5c-1.3,0.4-2.3-0.2-3.1-1.4
			c-3.2-4.9-6.5-9.7-9.7-14.6C103.7-18.8,103.4-18.8,103.1-18.7z"/>
		<path d="M162.7,102.6c0,6.9-4.3,11.6-10.5,11.5c-6-0.1-10.3-4.8-10.4-11.3c0-6.8,4-11.3,10.2-11.4
			C158.5,91.3,162.7,95.7,162.7,102.6z M159.8,102.7c0-5.4-2.9-8.8-7.5-8.8c-4.9,0-7.7,3.3-7.6,9c0.1,5.3,3.1,8.8,7.7,8.7
			C156.9,111.5,159.8,108.1,159.8,102.7z"/>
		<path d="M-0.8-80.9c0.1-7,4.1-11.2,10.8-11.1c6.1,0.1,10.3,4.8,10.2,11.4C20-73.8,15.6-69.2,9.2-69.4C3.1-69.6-1-74.2-0.8-80.9z
			 M2.1-80.7c0,5.4,2.8,8.9,7.4,8.9c4.4,0,7.6-3.6,7.6-8.8c0-5.3-2.9-9-7.4-9.1C5.1-89.8,2.1-86.3,2.1-80.7z"/>
		<path d="M-14.3,19.6c0.1-7,4.1-11.2,10.7-11.1C2.6,8.5,6.6,13,6.6,19.7c0,6.7-4.5,11.4-10.8,11.2C-10.4,30.8-14.4,26.3-14.3,19.6z
			 M-11.4,19.6c0,5.4,2.8,8.9,7.3,9.1c4.4,0.1,7.6-3.5,7.7-8.8c0.1-5.4-3.1-9.2-7.6-9.2C-8.6,10.7-11.3,14-11.4,19.6z"/>
		<path d="M44.2,76.8c0,6.7-4.1,11.1-10.4,11.2c-6.3,0-10.5-4.6-10.5-11.4c0-6.8,4.1-11.1,10.4-11.1C40.2,65.4,44.2,69.7,44.2,76.8z
			 M41.3,76.8c0-5.3-2.9-9-7.3-9.1c-4.7-0.1-7.8,3.4-7.8,9c0,5.3,3,8.9,7.5,9C38.2,85.7,41.3,82,41.3,76.8z"/>
		<path d="M-13.2-91.9c3.2,0,6,0.7,7.5,3.8c0.4,0.9,1.1,2-0.2,2.6c-1,0.5-1.7,0-2.3-1.2c-1.5-3.3-4.3-3.3-7.3-2.5
			c-1.4,0.4-2.5,1.2-2.6,2.8c-0.1,1.7,0.9,2.5,2.3,2.9c2.3,0.7,4.6,1.2,6.8,2c2.7,0.9,4.6,2.6,4.5,5.7c-0.1,3.2-2.1,5-4.8,6
			c-4.7,1.6-10-0.2-11.8-3.9c-0.5-1-1.3-2.2,0-3c1.2-0.7,1.8,0.2,2.4,1.4c1.7,3.3,6.2,4.4,9.4,2.7c1.2-0.6,2-1.5,2.1-2.9
			c0-1.5-0.8-2.6-2.2-3.1c-1.8-0.6-3.6-1-5.4-1.5c-4.6-1.3-6.6-3.4-6.1-6.7C-20.4-90-17.6-91.9-13.2-91.9z"/>
		<path d="M92.3,75.1c0-2.7,0-5.5,0-8.2c0-0.9-0.2-2.1,1.3-2.2c1.5-0.1,1.5,0.9,1.6,2c0.2,2.2-1,5.1,0.6,6.5
			c1.8,1.5,4.8,0.2,7.3,0.6c3.1,0.4,3.8-0.9,3.7-3.8c0-1.7-1.5-5,1.2-4.9c2.9,0,1.3,3.3,1.4,5.1c0.2,4.7,0.1,9.5,0.1,14.2
			c0,0.9,0.3,2.1-1.4,2.1c-1.5,0-1.4-1.1-1.4-2.1c0-0.2,0-0.5,0-0.7c-0.3-2.4,1.2-6-0.8-7c-2.6-1.2-6.1-0.4-9.2-0.4
			c-1.5,0-1.4,1.1-1.4,2.1c0,2.1,0,4.2,0,6.4c0,0.9,0,1.7-1.3,1.8c-1.5,0.1-1.6-0.8-1.6-1.9C92.3,81.4,92.3,78.3,92.3,75.1z"/>
		<path d="M142.5-10.8c0-5.1,3-8.4,7.6-8.3c4.2,0.1,7.3,3.5,7.4,8.2c0,5-3,8.4-7.5,8.4C145.3-2.4,142.4-5.6,142.5-10.8z M154.6-10.7
			c0-3.7-1.8-6.1-4.6-6.2c-2.9,0-4.9,2.6-4.8,6.3c0.1,3.7,1.9,5.9,4.8,5.9C152.8-4.7,154.6-7,154.6-10.7z"/>
		<path d="M162.6-10.8c0,2.5,0.2,4.9,3,5.8c2.5,0.9,4.4-0.2,5.3-2.6c0.4-1,1.1-0.9,1.8-0.6c0.9,0.4,0.6,1.2,0.4,1.9
			c-1.1,3.4-6.4,5-9.8,2.8c-3.5-2.2-3.8-5.7-3.3-9.3c0.5-3.4,2.4-5.6,6-6.3c2-0.3,3.7,0.1,5.3,1.3c1,0.8,2.6,2.1,1.6,3.3
			c-1.3,1.6-2.2-0.3-3.1-1.3c-1.2-1.4-2.8-1.5-4.4-0.7C162.9-15.3,162.6-13.1,162.6-10.8z"/>
		<path d="M-55.1-79.6c0-1.1,0-2.3,0-3.4c-0.1-1.9,0.4-4-0.4-5.5c-0.9-1.6-3.2-0.4-4.9-0.7c-0.7-0.1-1.6-0.1-1.7-1.1
			c-0.1-1.3,0.8-1.4,1.7-1.4c4.5,0,9,0,13.5,0c0.9,0,1.9,0,1.8,1.3c-0.1,1.2-1.1,1.1-2,1.1c-0.9,0-1.8,0.1-2.6,0
			c-2-0.2-2.6,0.7-2.6,2.6c0.1,4.5,0.1,9,0,13.5c0,1.2,0.8,3.2-1.3,3.3c-2.5,0.1-1.4-2.2-1.5-3.4C-55.2-75.3-55.1-77.5-55.1-79.6z"
			/>
		<path d="M137.9,64c1.2,0.1,1.4,0.8,1.6,1.5c1.8,6.8,3.6,13.7,5.4,20.5c0.2,0.7,0.7,1.5-0.4,1.9c-0.8,0.3-1.1-0.3-1.3-0.9
			c-1.9-7.2-3.9-14.4-5.8-21.5C137.3,64.7,137.4,64.2,137.9,64z"/>
		<path d="M62.6,52.7c-0.5,1.3-1,1.7-1.4,1.3c-1.3-1.2-3.1-2.1-3.5-4.1c-0.1-0.4,0.6-0.9,1.1-0.5C60.2,50.6,61.5,51.8,62.6,52.7z"/>
		<path d="M56.1,59.7c-0.5,0.5-0.9,1.1-1.1,1c-1.8-0.7-2.9-2.2-3.9-3.6c-0.4-0.6,0.4-1.4,0.8-1.1C53.4,57.1,54.6,58.4,56.1,59.7z"/>
		<path d="M11.1,14.9C10.8,14,11.2,13,12,13.4c1.4,0.9,1.2,2.8,1.7,4.3c0.3,0.9-0.1,1.9-0.9,1.5C11.2,18.3,11.5,16.4,11.1,14.9z"/>
		<path d="M23.3,14.6c0.1,1.1,0.1,2.4-0.8,1.9c-1.5-0.8-1.3-2.7-1.7-4.2c-0.2-0.8-0.2-1.9,0.7-1.5C23.3,11.5,22.6,13.7,23.3,14.6z"
			/>
		<path d="M33,12c0.2,1.3-0.1,2.4-0.8,2c-1.5-0.9-1.2-2.8-1.7-4.3c-0.3-0.9,0-1.8,0.8-1.4C33,9,32.2,11.1,33,12z"/>
	</g>
</g>
</svg>
